<?xml version="1.0" encoding="UTF-8" standalone="no"?>
<svg
   xmlns:dc="http://purl.org/dc/elements/1.1/"
   xmlns:cc="http://creativecommons.org/ns#"
   xmlns:rdf="http://www.w3.org/1999/02/22-rdf-syntax-ns#"
   xmlns:svg="http://www.w3.org/2000/svg"
   xmlns="http://www.w3.org/2000/svg"
   xmlns:sodipodi="http://sodipodi.sourceforge.net/DTD/sodipodi-0.dtd"
   xmlns:inkscape="http://www.inkscape.org/namespaces/inkscape"
   width="32"
   height="32"
   viewBox="0 0 32 32"
   version="1.1"
   preserveAspectRatio="xMidYMid"
   id="svg3037"
   inkscape:version="0.48.4 r9939"
   sodipodi:docname="nodejs-icon.svg">
  <metadata
     id="metadata3049">
    <rdf:RDF>
      <cc:Work
         rdf:about="">
        <dc:format>image/svg+xml</dc:format>
        <dc:type
           rdf:resource="http://purl.org/dc/dcmitype/StillImage" />
      </cc:Work>
    </rdf:RDF>
  </metadata>
  <defs
     id="defs3047" />
  <sodipodi:namedview
     pagecolor="#ffffff"
     bordercolor="#666666"
     borderopacity="1"
     objecttolerance="10"
     gridtolerance="10"
     guidetolerance="10"
     inkscape:pageopacity="0"
     inkscape:pageshadow="2"
     inkscape:window-width="1318"
     inkscape:window-height="1015"
     id="namedview3045"
     showgrid="false"
     inkscape:zoom="21.357939"
     inkscape:cx="15.9829"
     inkscape:cy="15.994086"
     inkscape:window-x="75"
     inkscape:window-y="34"
     inkscape:window-maximized="0"
     inkscape:current-layer="svg3037" />
  <g
     id="g3039"
     style="fill:#8cc84b"
     transform="matrix(0.11356022,0,0,0.11356022,1.4259528,0.02035343)">
    <path
       d="m 116.50415,3.5803774 c 6.96151,-3.9849057 16.03019,-4.00301891 22.98566,0 34.99472,19.7735846 70.00151,39.5169806 104.99019,59.3026416 6.58113,3.70717 10.98264,11.030943 10.91623,18.61434 l 0,118.967551 c 0.0483,7.89735 -4.78793,15.39622 -11.73132,19.01886 -34.88,19.66491 -69.74189,39.35397 -104.61585,59.01887 -7.10642,4.0634 -16.35623,3.74943 -23.23925,-0.64604 -10.45736,-6.06188 -20.932829,-12.09358 -31.390187,-18.14943 -2.137359,-1.27396 -4.546415,-2.2883 -6.055849,-4.35925 1.334339,-1.79924 3.719245,-2.02264 5.657358,-2.80754 4.365283,-1.38868 8.37434,-3.61661 12.383396,-5.77812 1.01434,-0.69434 2.252076,-0.42868 3.224151,0.19321 8.941891,5.12604 17.805281,10.40302 26.777361,15.48076 1.91396,1.1049 3.85207,-0.36227 5.4883,-1.27397 34.22792,-19.3449 68.49811,-38.61735 102.72,-57.9683 1.26792,-0.60981 1.9683,-1.95622 1.86566,-3.3449 0.0242,-39.24529 0.006,-78.49661 0.0121,-117.74189 0.14491,-1.575849 -0.76679,-3.024906 -2.19169,-3.670944 C 199.54113,58.861887 164.8,39.257359 130.04679,19.676981 c -1.24377,-0.845283 -2.84981,-0.851321 -4.09358,-0.006 C 91.2,39.257359 56.464906,58.88 21.711698,78.45434 c -1.418868,0.646037 -2.37283,2.070943 -2.203773,3.65283 0.006,39.24528 0,78.4966 0,117.74792 -0.120755,1.38868 0.627924,2.70491 1.889811,3.30265 9.273962,5.25886 18.56,10.4815 27.84,15.72226 5.228679,2.81359 11.646792,4.48604 17.406792,2.33057 5.083774,-1.8234 8.646038,-7.00982 8.549434,-12.40755 0.0483,-39.01585 -0.02415,-78.03774 0.03623,-117.047548 -0.126793,-1.73283 1.515471,-3.163774 3.2,-3.000755 4.455849,-0.03019 8.917736,-0.06038 13.373585,0.01207 1.859622,-0.04226 3.139622,1.823397 2.910188,3.568302 -0.01811,39.263391 0.0483,78.526791 -0.03019,117.790181 0.01207,10.4634 -4.286793,21.85057 -13.965283,26.97057 -11.924529,6.1766 -26.662642,4.86641 -38.442265,-1.05661 C 32.078491,230.94943 22.34566,224.94189 12.329057,219.48981 5.3675472,215.88528 0.5554717,208.35623 0.60377358,200.46491 l 0,-118.967551 C 0.53132075,73.756981 5.1079245,66.300377 11.89434,62.647547 46.768302,42.964528 81.636226,23.269434 116.50415,3.5803774 l 0,0 z"
       id="path3041"
       inkscape:connector-curvature="0" />
    <path
       d="m 146.9283,85.989434 c 15.20906,-0.978113 31.49283,-0.579623 45.18038,6.913208 10.59623,5.741886 16.47094,17.793208 16.65811,29.566788 -0.29585,1.58793 -1.95622,2.4634 -3.4717,2.35472 -4.41358,-0.006 -8.82717,0.0604 -13.24075,-0.0302 -1.8717,0.0725 -2.95849,-1.65434 -3.19396,-3.30868 -1.26793,-5.6332 -4.34114,-11.21207 -9.64227,-13.92905 -8.13887,-4.07547 -17.57585,-3.87019 -26.45132,-3.78566 -6.47849,0.34415 -13.44604,0.90566 -18.93434,4.71547 -4.21434,2.88603 -5.49434,8.71245 -3.99094,13.40377 1.41887,3.36906 5.30717,4.45585 8.48906,5.45812 18.33056,4.79396 37.75396,4.31698 55.73434,10.62641 7.44452,2.57207 14.72603,7.57132 17.27396,15.36604 3.33283,10.44528 1.8717,22.93132 -5.56076,31.31773 -6.02566,6.90113 -14.80452,10.65661 -23.55924,12.69736 -11.6468,2.59623 -23.73434,2.66264 -35.56227,1.50944 -11.12151,-1.26793 -22.69584,-4.19019 -31.28151,-11.76755 -7.34188,-6.37585 -10.9283,-16.30793 -10.57207,-25.89585 0.0845,-1.61811 1.6966,-2.74717 3.2483,-2.61434 4.44377,-0.0362 8.88755,-0.0483 13.33132,0.006 1.7751,-0.1268 3.09132,1.40679 3.18189,3.07924 0.82113,5.36755 2.83773,11.00076 7.51698,14.18264 9.03245,5.82642 20.36528,5.42793 30.70792,5.59095 8.56755,-0.38038 18.18566,-0.4951 25.17736,-6.15849 3.68906,-3.23019 4.78189,-8.63397 3.78566,-13.28302 -1.08075,-3.92453 -5.18641,-5.75396 -8.71245,-6.94944 -18.09509,-5.72377 -37.73585,-3.64679 -55.65585,-10.11924 -7.27547,-2.57208 -14.30943,-7.43245 -17.1049,-14.90717 -3.90038,-10.57811 -2.11321,-23.66189 6.09811,-31.764529 8.00604,-8.060377 19.56226,-11.163774 30.55094,-12.274717 l 0,0 z"
       id="path3043"
       inkscape:connector-curvature="0" />
  </g>
</svg>
